<?xml version="1.0" encoding="UTF-8"?>
<svg width="239px" height="47px" viewBox="0 0 239 47" version="1.1" xmlns="http://www.w3.org/2000/svg" xmlns:xlink="http://www.w3.org/1999/xlink">
    <!-- Generator: Sketch 46.2 (44496) - http://www.bohemiancoding.com/sketch -->
    <title>logo_simple</title>
    <desc>Created with Sketch.</desc>
    <defs></defs>
    <g id="Page-1" stroke="none" stroke-width="1" fill="none" fill-rule="evenodd">
        <g id="logo_simple" fill-rule="nonzero">
            <path d="M124.791016,0.641113281 L130.833496,0.641113281 L130.833496,22.0180664 C132.981944,20.084463 135.354154,19.1176758 137.950195,19.1176758 C140.904312,19.1176758 143.267569,20.0755113 145.040039,21.9912109 C146.543953,23.6562583 147.295898,26.3149231 147.295898,29.9672852 L147.295898,46 L141.253418,46 L141.253418,30.53125 C141.253418,28.436513 140.881921,26.9191942 140.138916,25.979248 C139.395911,25.0393019 138.200855,24.5693359 136.553711,24.5693359 C134.44107,24.5693359 132.955082,25.2228125 132.095703,26.5297852 C131.254228,27.8546616 130.833496,30.1284019 130.833496,33.3510742 L130.833496,46 L124.791016,46 L124.791016,0.641113281 Z" id="Path" fill="#E06E89"></path>
            <path d="M174.231934,19.8427734 L180.30127,19.8427734 L180.30127,46 L174.231934,46 L174.231934,43.2607422 C171.743314,45.5882278 169.066746,46.7519531 166.202148,46.7519531 C162.585594,46.7519531 159.595715,45.445 157.232422,42.8310547 C154.887033,40.1633981 153.714355,36.8333533 153.714355,32.8408203 C153.714355,28.9199023 154.887033,25.6525196 157.232422,23.0385742 C159.577811,20.4246289 162.51398,19.1176758 166.041016,19.1176758 C169.084651,19.1176758 171.814929,20.3709185 174.231934,22.8774414 L174.231934,19.8427734 Z M159.891113,32.8408203 C159.891113,35.3473433 160.562493,37.3883385 161.905273,38.9638672 C163.283861,40.5572996 165.020497,41.3540039 167.115234,41.3540039 C169.353201,41.3540039 171.161451,40.5841548 172.540039,39.0444336 C173.918627,37.4510011 174.60791,35.4279094 174.60791,32.9750977 C174.60791,30.5222859 173.918627,28.4991942 172.540039,26.9057617 C171.161451,25.3481367 169.371105,24.5693359 167.168945,24.5693359 C165.092112,24.5693359 163.355476,25.3570885 161.958984,26.9326172 C160.580397,28.5260496 159.891113,30.495431 159.891113,32.8408203 Z" id="Combined-Shape" fill="#E06E89"></path>
            <path d="M208.284668,20.9707031 L208.284668,29.0004883 C206.90608,27.3175372 205.670741,26.1627635 204.578613,25.5361328 C203.504389,24.8915983 202.242195,24.5693359 200.791992,24.5693359 C198.518218,24.5693359 196.629402,25.3660402 195.125488,26.9594727 C193.621575,28.5529051 192.869629,30.5491417 192.869629,32.9482422 C192.869629,35.4010539 193.594719,37.4151939 195.044922,38.9907227 C196.513028,40.5662514 198.38394,41.3540039 200.657715,41.3540039 C202.107917,41.3540039 203.388015,41.0406932 204.498047,40.4140625 C205.572271,39.8053355 206.834465,38.6237067 208.284668,36.8691406 L208.284668,44.8452148 C205.831856,46.1163801 203.379081,46.7519531 200.92627,46.7519531 C196.880025,46.7519531 193.49627,45.445 190.774902,42.8310547 C188.053535,40.1992056 186.692871,36.9318229 186.692871,33.0288086 C186.692871,29.1257943 188.071438,25.8315564 190.828613,23.1459961 C193.585789,20.4604358 196.969544,19.1176758 200.97998,19.1176758 C203.558118,19.1176758 205.99299,19.7353454 208.284668,20.9707031 Z" id="Path" fill="#E06E89"></path>
            <polygon id="Path" fill="#E06E89" points="221.60498 0.641113281 221.60498 28.3022461 230.118164 19.8427734 238.228516 19.8427734 226.868652 30.8266602 239.061035 46 231.219238 46 222.571777 34.9624023 221.60498 35.9291992 221.60498 46 215.5625 46 215.5625 0.641113281"></polygon>
            <polygon id="Path" fill="#00B1E1" points="9.04394531 25.4824219 9.04394531 46 3.00146484 46 3.00146484 25.4824219 0.423339844 25.4824219 0.423339844 19.8427734 3.00146484 19.8427734 3.00146484 10.2553711 9.04394531 10.2553711 9.04394531 19.8427734 13.7436523 19.8427734 13.7436523 25.4824219"></polygon>
            <path d="M37.6181641,19.8427734 L43.6875,19.8427734 L43.6875,46 L37.6181641,46 L37.6181641,43.2607422 C35.1295448,45.5882278 32.4529766,46.7519531 29.5883789,46.7519531 C25.9718244,46.7519531 22.9819454,45.445 20.6186523,42.8310547 C18.273263,40.1633981 17.1005859,36.8333533 17.1005859,32.8408203 C17.1005859,28.9199023 18.273263,25.6525196 20.6186523,23.0385742 C22.9640417,20.4246289 25.9002102,19.1176758 29.4272461,19.1176758 C32.4708811,19.1176758 35.2011598,20.3709185 37.6181641,22.8774414 L37.6181641,19.8427734 Z M23.2773438,32.8408203 C23.2773438,35.3473433 23.9487238,37.3883385 25.2915039,38.9638672 C26.6700915,40.5572996 28.4067278,41.3540039 30.5014648,41.3540039 C32.7394318,41.3540039 34.5476819,40.5841548 35.9262695,39.0444336 C37.3048572,37.4510011 37.9941406,35.4279094 37.9941406,32.9750977 C37.9941406,30.5222859 37.3048572,28.4991942 35.9262695,26.9057617 C34.5476819,25.3481367 32.7573352,24.5693359 30.5551758,24.5693359 C28.4783425,24.5693359 26.7417062,25.3570885 25.3452148,26.9326172 C23.9666272,28.5260496 23.2773438,30.495431 23.2773438,32.8408203 Z" id="Combined-Shape" fill="#00B1E1"></path>
            <path d="M51.3144531,19.8427734 L57.3569336,19.8427734 L57.3569336,22.2597656 C58.5206764,21.0423116 59.5143188,20.2187521 60.3378906,19.7890625 C61.2151737,19.3414691 62.3162369,19.1176758 63.6411133,19.1176758 C66.5952296,19.1176758 68.931632,20.4067254 70.6503906,22.9848633 C72.5481866,20.4067254 75.1173341,19.1176758 78.3579102,19.1176758 C84.2482391,19.1176758 87.1933594,22.6894174 87.1933594,29.8330078 L87.1933594,46 L81.1240234,46 L81.1240234,31.4711914 C81.1240234,28.9646685 80.8196645,27.1922252 80.2109375,26.1538086 C79.5843068,25.0974882 78.5548574,24.5693359 77.1225586,24.5693359 C75.4575112,24.5693359 74.2445513,25.1959573 73.4836426,26.4492188 C72.7227338,27.7024802 72.3422852,29.7166202 72.3422852,32.4916992 L72.3422852,46 L66.2729492,46 L66.2729492,31.5517578 C66.2729492,26.8967866 64.9301892,24.5693359 62.2446289,24.5693359 C60.543774,24.5693359 59.303959,25.204909 58.5251465,26.4760742 C57.746334,27.7472394 57.3569336,29.7524277 57.3569336,32.4916992 L57.3569336,46 L51.3144531,46 L51.3144531,19.8427734 Z" id="Path" fill="#00B1E1"></path>
            <path d="M100.862793,19.8427734 L100.862793,34.8549805 C100.862793,39.1876844 102.572574,41.3540039 105.992188,41.3540039 C109.411801,41.3540039 111.121582,39.1876844 111.121582,34.8549805 L111.121582,19.8427734 L117.164062,19.8427734 L117.164062,34.9892578 C117.164062,37.0839948 116.904462,38.892245 116.385254,40.4140625 C115.883949,41.7747464 115.015631,43.0011339 113.780273,44.0932617 C111.739248,45.8657315 109.143245,46.7519531 105.992188,46.7519531 C102.859034,46.7519531 100.271983,45.8657315 98.230957,44.0932617 C96.9776956,43.0011339 96.091474,41.7747464 95.5722656,40.4140625 C95.070961,39.1966085 94.8203125,37.3883583 94.8203125,34.9892578 L94.8203125,19.8427734 L100.862793,19.8427734 Z" id="Path" fill="#00B1E1"></path>
        </g>
    </g>
</svg>